<?xml version="1.0" standalone="no"?><!DOCTYPE svg PUBLIC "-//W3C//DTD SVG 1.1//EN" "http://www.w3.org/Graphics/SVG/1.1/DTD/svg11.dtd"><svg t="1536930361473" class="icon" style="" viewBox="0 0 1024 1024" version="1.1" xmlns="http://www.w3.org/2000/svg" p-id="1396" xmlns:xlink="http://www.w3.org/1999/xlink" width="32" height="32"><defs><style type="text/css"></style></defs><path d="M905.298 434.24l-60.48 60.48-0.48 2.4c0 1.92-0.48 4.32-0.48 6.24 0 3.36-0.48 6.24-0.96 9.6-12.48 81.12-57.12 157.44-125.76 214.56-68.64 57.12-153.6 88.32-238.56 88.32-89.28 0-155.040-32.16-160.8-78.72-4.32-35.040-18.24-61.92-41.28-79.68-22.080-17.28-52.32-24.96-83.52-20.64h-0.96c-42.72 5.28-73.44 9.6-88.8-4.32-9.6-8.16-13.92-24-13.92-47.52 0-206.88 192-351.84 377.76-372.96 137.76-15.36 268.32 30.24 333.12 115.2l4.8 6.72 43.2-43.2-4.32-4.8c-78.24-96.48-225.6-147.84-375.84-130.56-120.48 13.92-229.44 61.44-307.68 133.92-87.36 80.64-131.52 188.64-128.16 311.52 0.96 29.28 12.48 53.76 34.080 70.080 30.24 23.040 77.28 29.76 129.12 17.76 45.12-10.56 56.64 20.64 68.64 69.6 1.92 6.72 3.36 13.92 5.28 20.16 16.8 57.6 122.88 93.12 210.72 93.12 107.52 0 209.76-40.32 288.48-112.8 73.44-67.68 122.4-161.28 133.92-256.32 1.92-15.84 2.4-33.12 1.92-51.36 0.96 0 0.96-16.8 0.96-16.8z" p-id="1397" fill="#1296db"></path><path d="M451.698 336.8c0 28.32 23.040 51.36 51.36 51.36s51.36-23.040 51.36-51.36-23.040-51.36-51.36-51.36c-28.32 0-51.36 23.040-51.36 51.36zM605.778 380.96c0 28.32 23.040 51.36 51.36 51.36s51.36-23.040 51.36-51.36-23.040-51.36-51.36-51.36c-27.84 0-51.36 23.040-51.36 51.36zM297.138 380.96c0 28.32 23.040 51.36 51.36 51.36s51.36-23.040 51.36-51.36-22.56-51.36-50.88-51.36-51.84 23.040-51.84 51.36zM187.218 490.88c0 28.32 23.040 51.36 51.36 51.36s51.36-23.040 51.36-51.36-23.040-51.36-51.36-51.36c-27.84 0-51.36 23.040-51.36 51.36zM984.498 249.92c-8.16-8.16-25.44-15.84-57.12 15.84l-356.16 353.76c-13.44 13.44-58.56 88.32-63.36 96.48l-15.84 26.88 26.4-16.32c8.64-5.28 83.040-52.32 96.48-65.28l356.16-353.76c22.080-22.56 26.88-44.64 13.44-57.6z" p-id="1398" fill="#1296db"></path></svg>